<mxfile host="app.diagrams.net" modified="2023-11-12T12:10:02.451Z" agent="Mozilla/5.0 (Windows NT 10.0; Win64; x64) AppleWebKit/537.36 (KHTML, like Gecko) Chrome/119.0.0.0 Safari/537.36" etag="35pIIu_KBlnkFlSoaqKF" version="22.1.0" type="device">
  <diagram id="Zw8teMte6me5rYNHnaHX" name="Page-1">
    <mxGraphModel dx="1877" dy="581" grid="1" gridSize="10" guides="1" tooltips="1" connect="1" arrows="1" fold="1" page="1" pageScale="1" pageWidth="827" pageHeight="1169" math="0" shadow="0">
      <root>
        <mxCell id="0" />
        <mxCell id="1" parent="0" />
        <mxCell id="9CHXlj7oDI2Sfz7KYW_z-1" style="edgeStyle=orthogonalEdgeStyle;rounded=0;orthogonalLoop=1;jettySize=auto;html=1;" parent="1" source="9CHXlj7oDI2Sfz7KYW_z-42" target="9CHXlj7oDI2Sfz7KYW_z-9" edge="1">
          <mxGeometry relative="1" as="geometry">
            <mxPoint x="738.94" y="750" as="sourcePoint" />
          </mxGeometry>
        </mxCell>
        <mxCell id="9CHXlj7oDI2Sfz7KYW_z-2" value="class:&lt;b style=&quot;border-color: var(--border-color);&quot;&gt;isClassifiedBy&lt;/b&gt;" style="edgeLabel;html=1;align=center;verticalAlign=middle;resizable=0;points=[];" parent="9CHXlj7oDI2Sfz7KYW_z-1" vertex="1" connectable="0">
          <mxGeometry x="0.0792" y="-2" relative="1" as="geometry">
            <mxPoint as="offset" />
          </mxGeometry>
        </mxCell>
        <mxCell id="9CHXlj7oDI2Sfz7KYW_z-3" value="fs:Event&#xa;(Number Draw)" style="graphMlID=n4;shape=rect;rounded=1;arcsize=30;fillColor=#ffff00;strokeColor=#000000;strokeWidth=1.0;fontStyle=1" parent="1" vertex="1">
          <mxGeometry x="689.95" y="800" width="100" height="44" as="geometry" />
        </mxCell>
        <mxCell id="oJPYlwBUDY8PVrJOYScc-43" style="edgeStyle=orthogonalEdgeStyle;rounded=0;orthogonalLoop=1;jettySize=auto;html=1;entryX=0.911;entryY=-0.086;entryDx=0;entryDy=0;entryPerimeter=0;" parent="1" target="9CHXlj7oDI2Sfz7KYW_z-10" edge="1">
          <mxGeometry relative="1" as="geometry">
            <mxPoint x="1060" y="848" as="sourcePoint" />
            <mxPoint x="470" y="960" as="targetPoint" />
            <Array as="points">
              <mxPoint x="1061" y="848" />
              <mxPoint x="1061" y="873" />
              <mxPoint x="469" y="873" />
            </Array>
          </mxGeometry>
        </mxCell>
        <mxCell id="oJPYlwBUDY8PVrJOYScc-47" value="&lt;span style=&quot;border-color: var(--border-color);&quot;&gt;cco:&lt;/span&gt;&lt;b style=&quot;border-color: var(--border-color);&quot;&gt;hasBelief&lt;/b&gt;" style="edgeLabel;html=1;align=center;verticalAlign=middle;resizable=0;points=[];" parent="oJPYlwBUDY8PVrJOYScc-43" vertex="1" connectable="0">
          <mxGeometry x="-0.5189" relative="1" as="geometry">
            <mxPoint x="-36" as="offset" />
          </mxGeometry>
        </mxCell>
        <mxCell id="9CHXlj7oDI2Sfz7KYW_z-8" value="foaf:Person&#xa;(Participant)" style="graphMlID=n4;shape=rect;rounded=1;arcsize=30;fillColor=#ffff00;strokeColor=#000000;strokeWidth=1.0;fontStyle=1" parent="1" vertex="1">
          <mxGeometry x="1030" y="803" width="81.96822102864604" height="44" as="geometry" />
        </mxCell>
        <mxCell id="9CHXlj7oDI2Sfz7KYW_z-9" value="fs:Process&#xa;(Process)" style="graphMlID=n4;shape=rect;rounded=1;arcsize=30;fillColor=#ffff00;strokeColor=#000000;strokeWidth=1.0;fontStyle=1" parent="1" vertex="1">
          <mxGeometry x="950.44" y="640" width="147.01" height="44" as="geometry" />
        </mxCell>
        <mxCell id="oJPYlwBUDY8PVrJOYScc-23" style="edgeStyle=orthogonalEdgeStyle;rounded=0;orthogonalLoop=1;jettySize=auto;html=1;exitX=0.5;exitY=1;exitDx=0;exitDy=0;entryX=0.5;entryY=1;entryDx=0;entryDy=0;" parent="1" source="9CHXlj7oDI2Sfz7KYW_z-10" target="oJPYlwBUDY8PVrJOYScc-6" edge="1">
          <mxGeometry relative="1" as="geometry">
            <Array as="points">
              <mxPoint x="426" y="1270" />
              <mxPoint x="1491" y="1270" />
            </Array>
          </mxGeometry>
        </mxCell>
        <mxCell id="oJPYlwBUDY8PVrJOYScc-24" value="aff:&lt;b&gt;influencedBy&lt;/b&gt;" style="edgeLabel;html=1;align=center;verticalAlign=middle;resizable=0;points=[];" parent="oJPYlwBUDY8PVrJOYScc-23" vertex="1" connectable="0">
          <mxGeometry x="0.1643" y="2" relative="1" as="geometry">
            <mxPoint x="-29" as="offset" />
          </mxGeometry>
        </mxCell>
        <mxCell id="oJPYlwBUDY8PVrJOYScc-35" style="edgeStyle=orthogonalEdgeStyle;rounded=0;orthogonalLoop=1;jettySize=auto;html=1;exitX=0;exitY=0.5;exitDx=0;exitDy=0;entryX=1;entryY=0.5;entryDx=0;entryDy=0;" parent="1" source="9CHXlj7oDI2Sfz7KYW_z-10" target="oJPYlwBUDY8PVrJOYScc-34" edge="1">
          <mxGeometry relative="1" as="geometry" />
        </mxCell>
        <mxCell id="oJPYlwBUDY8PVrJOYScc-36" value="rdf:&lt;b&gt;type&lt;/b&gt;" style="edgeLabel;html=1;align=center;verticalAlign=middle;resizable=0;points=[];" parent="oJPYlwBUDY8PVrJOYScc-35" vertex="1" connectable="0">
          <mxGeometry x="0.2182" y="2" relative="1" as="geometry">
            <mxPoint as="offset" />
          </mxGeometry>
        </mxCell>
        <mxCell id="9CHXlj7oDI2Sfz7KYW_z-10" value="fs:Probability" style="graphMlID=n4;shape=rect;rounded=1;arcsize=30;fillColor=#ffff00;strokeColor=#000000;strokeWidth=1.0;fontStyle=1" parent="1" vertex="1">
          <mxGeometry x="372" y="970" width="106.97" height="44" as="geometry" />
        </mxCell>
        <mxCell id="9CHXlj7oDI2Sfz7KYW_z-13" style="edgeStyle=orthogonalEdgeStyle;rounded=0;orthogonalLoop=1;jettySize=auto;html=1;exitX=0.5;exitY=0;exitDx=0;exitDy=0;entryX=0.5;entryY=1;entryDx=0;entryDy=0;" parent="1" source="9CHXlj7oDI2Sfz7KYW_z-17" target="9CHXlj7oDI2Sfz7KYW_z-3" edge="1">
          <mxGeometry relative="1" as="geometry" />
        </mxCell>
        <mxCell id="9CHXlj7oDI2Sfz7KYW_z-14" value="seq:&lt;b&gt;precedes&lt;/b&gt;" style="edgeLabel;html=1;align=center;verticalAlign=middle;resizable=0;points=[];" parent="9CHXlj7oDI2Sfz7KYW_z-13" vertex="1" connectable="0">
          <mxGeometry x="0.0485" y="3" relative="1" as="geometry">
            <mxPoint x="3" y="24" as="offset" />
          </mxGeometry>
        </mxCell>
        <mxCell id="9CHXlj7oDI2Sfz7KYW_z-15" style="edgeStyle=orthogonalEdgeStyle;rounded=0;orthogonalLoop=1;jettySize=auto;html=1;exitX=1;exitY=0.5;exitDx=0;exitDy=0;" parent="1" source="9CHXlj7oDI2Sfz7KYW_z-17" edge="1">
          <mxGeometry relative="1" as="geometry">
            <mxPoint x="1003.94" y="993.0000000000002" as="targetPoint" />
          </mxGeometry>
        </mxCell>
        <mxCell id="9CHXlj7oDI2Sfz7KYW_z-16" value="res:&lt;b style=&quot;border-color: var(--border-color);&quot;&gt;hasMemberEvent&lt;/b&gt;" style="edgeLabel;html=1;align=center;verticalAlign=middle;resizable=0;points=[];" parent="9CHXlj7oDI2Sfz7KYW_z-15" vertex="1" connectable="0">
          <mxGeometry x="-0.0209" y="1" relative="1" as="geometry">
            <mxPoint as="offset" />
          </mxGeometry>
        </mxCell>
        <mxCell id="M7dF_7UTcZpXlqOXVH3X-3" style="edgeStyle=orthogonalEdgeStyle;rounded=0;orthogonalLoop=1;jettySize=auto;html=1;exitX=0;exitY=0;exitDx=0;exitDy=0;entryX=0;entryY=0.25;entryDx=0;entryDy=0;" parent="1" edge="1">
          <mxGeometry relative="1" as="geometry">
            <Array as="points">
              <mxPoint x="667" y="976" />
              <mxPoint x="667" y="651" />
            </Array>
            <mxPoint x="665.94" y="975" as="sourcePoint" />
            <mxPoint x="685.94" y="651" as="targetPoint" />
          </mxGeometry>
        </mxCell>
        <mxCell id="M7dF_7UTcZpXlqOXVH3X-4" value="prov:&lt;b&gt;generatedBy&lt;/b&gt;" style="edgeLabel;html=1;align=center;verticalAlign=middle;resizable=0;points=[];" parent="M7dF_7UTcZpXlqOXVH3X-3" vertex="1" connectable="0">
          <mxGeometry x="0.2374" y="1" relative="1" as="geometry">
            <mxPoint x="7" y="-54" as="offset" />
          </mxGeometry>
        </mxCell>
        <mxCell id="9CHXlj7oDI2Sfz7KYW_z-17" value="fs:Sequence&#xa;(Number Draws Series)" style="graphMlID=n4;shape=rect;rounded=1;arcsize=30;fillColor=#ffff00;strokeColor=#000000;strokeWidth=1.0;fontStyle=1" parent="1" vertex="1">
          <mxGeometry x="660.94" y="975" width="158.02" height="34" as="geometry" />
        </mxCell>
        <mxCell id="9CHXlj7oDI2Sfz7KYW_z-22" value="xsd:integer" style="graphMlID=n6;shape=parallelogram;fillColor=#ccffcc;strokeColor=#000000;strokeWidth=1.0;fontStyle=1" parent="1" vertex="1">
          <mxGeometry x="1429.4" y="792.5" width="151" height="45" as="geometry" />
        </mxCell>
        <mxCell id="9CHXlj7oDI2Sfz7KYW_z-23" style="rounded=0;orthogonalLoop=1;jettySize=auto;html=1;exitX=0;exitY=0.5;exitDx=0;exitDy=0;exitPerimeter=0;edgeStyle=orthogonalEdgeStyle;strokeColor=none;" parent="1" edge="1">
          <mxGeometry relative="1" as="geometry">
            <mxPoint x="1248.94" y="980" as="targetPoint" />
            <mxPoint x="1228.94" y="988" as="sourcePoint" />
          </mxGeometry>
        </mxCell>
        <mxCell id="9CHXlj7oDI2Sfz7KYW_z-28" value="Prefixes" style="graphMlID=n0;shape=swimlane;startSize=23;fillColor=#b7b69e;strokeColor=#000000;strokeWidth=1.0;align=right;spacingRight=10;fontStyle=1" parent="1" vertex="1">
          <mxGeometry x="-250" y="340" width="707.5" height="290" as="geometry" />
        </mxCell>
        <mxCell id="9CHXlj7oDI2Sfz7KYW_z-29" value="&lt;div style=&quot;text-align: left;&quot;&gt;&lt;b&gt;aff&lt;/b&gt;:&amp;nbsp;https://w3id.org/affectedBy&lt;/div&gt;&lt;div style=&quot;text-align: left;&quot;&gt;&lt;b&gt;ap:&amp;nbsp;&lt;/b&gt;http://descartes-core.org/ontologies/activities/1.0/ActivityPattern.owl&lt;/div&gt;&lt;div style=&quot;text-align: left;&quot;&gt;&lt;b style=&quot;font-weight: bold; background-color: initial;&quot;&gt;class&lt;/b&gt;&lt;span style=&quot;font-weight: normal; background-color: initial;&quot;&gt;: http://www.ontologydesignpatterns.org/cp/owl/classification.owl#&lt;/span&gt;&lt;/div&gt;&lt;div style=&quot;text-align: left;&quot;&gt;&lt;span style=&quot;background-color: initial;&quot;&gt;&lt;b&gt;cco:&amp;nbsp;&lt;/b&gt;&lt;/span&gt;http://purl.org/ontology/cco/core#&lt;/div&gt;&lt;div style=&quot;text-align: left;&quot;&gt;&lt;span style=&quot;background-color: initial;&quot;&gt;&lt;b&gt;cn5&lt;/b&gt;&lt;/span&gt;&lt;span style=&quot;font-weight: normal; background-color: initial;&quot;&gt;:&amp;nbsp;&lt;/span&gt;&lt;span style=&quot;background-color: initial;&quot;&gt;https:​/​/​w3id.​org/​framester/​conceptnet/​5.​7.​0/​c/​en/​&lt;/span&gt;&lt;/div&gt;&lt;div style=&quot;text-align: left;&quot;&gt;&lt;span style=&quot;background-color: initial;&quot;&gt;&lt;b&gt;dul:&lt;/b&gt;&lt;/span&gt;&lt;span style=&quot;font-weight: normal; background-color: initial;&quot;&gt;&amp;nbsp;&lt;/span&gt;&lt;span style=&quot;background-color: initial;&quot;&gt;http://www.ontologydesignpatterns.org/ont/dul/DUL.owl#&lt;/span&gt;&lt;/div&gt;&lt;div style=&quot;text-align: left;&quot;&gt;&lt;span style=&quot;background-color: initial;&quot;&gt;&lt;b&gt;dbo&lt;/b&gt;:&lt;/span&gt;&lt;span style=&quot;background-color: initial;&quot;&gt;http://dbpedia.org/ontology/&lt;/span&gt;&lt;/div&gt;&lt;div style=&quot;text-align: left;&quot;&gt;&lt;span style=&quot;background-color: initial;&quot;&gt;&lt;b&gt;foaf:&amp;nbsp;&lt;/b&gt;&lt;/span&gt;&lt;span style=&quot;background-color: initial;&quot;&gt;http://xmlns.com/foaf/0.1/&lt;/span&gt;&lt;/div&gt;&lt;div style=&quot;text-align: left;&quot;&gt;&lt;span style=&quot;background-color: initial;&quot;&gt;&lt;b&gt;fs&lt;/b&gt;:&lt;/span&gt;&lt;span style=&quot;background-color: initial; text-align: center;&quot;&gt;https://w3id.org/framester/data/framestercore/&lt;/span&gt;&lt;/div&gt;&lt;div style=&quot;text-align: left;&quot;&gt;&lt;span style=&quot;background-color: initial; text-align: center;&quot;&gt;&lt;b&gt;owl:&amp;nbsp;&lt;/b&gt;&lt;/span&gt;&lt;span style=&quot;background-color: initial;&quot;&gt;https://www.w3.org/2002/07/owl#&lt;/span&gt;&lt;/div&gt;&lt;div style=&quot;text-align: left;&quot;&gt;&lt;b style=&quot;border-color: var(--border-color);&quot;&gt;par:&lt;/b&gt;&amp;nbsp;http://ontologydesignpatterns.org/cp/owl/parameter.owl#&lt;br&gt;&lt;/div&gt;&lt;div style=&quot;text-align: left;&quot;&gt;&lt;span style=&quot;background-color: initial;&quot;&gt;&lt;b&gt;pof&lt;/b&gt;:&amp;nbsp;&lt;/span&gt;&lt;span style=&quot;background-color: initial;&quot;&gt;http://www.ontologydesignpatterns.org/cp/owl/partof.owl#&lt;/span&gt;&lt;/div&gt;&lt;div style=&quot;text-align: left;&quot;&gt;&lt;span style=&quot;background-color: initial;&quot;&gt;&lt;b&gt;prov&lt;/b&gt;:&lt;/span&gt;&lt;span style=&quot;background-color: initial;&quot;&gt;https://raw.githubusercontent.com/cogan-shimizu-wsu/ProvenanceOWL/master/EntityWithProvenanceOntologyPattern.owl#&amp;nbsp;&lt;/span&gt;&lt;/div&gt;&lt;div style=&quot;text-align: left;&quot;&gt;&lt;span style=&quot;background-color: initial;&quot;&gt;&lt;b&gt;rdfs&lt;/b&gt;:&amp;nbsp;&lt;/span&gt;&lt;span style=&quot;background-color: initial;&quot;&gt;https://www.w3.org/TR/rdf12-schema/&lt;/span&gt;&lt;/div&gt;&lt;div style=&quot;text-align: left;&quot;&gt;&lt;span style=&quot;background-color: initial;&quot;&gt;&lt;b&gt;res&lt;/b&gt;:&amp;nbsp;&lt;/span&gt;&lt;span style=&quot;background-color: initial;&quot;&gt;http://www.ontologydesignpatterns.org/cp/owl/recurrenteventseries.owl#&amp;nbsp;&lt;/span&gt;&lt;/div&gt;&lt;div style=&quot;text-align: left;&quot;&gt;&lt;span style=&quot;background-color: initial;&quot;&gt;&lt;b&gt;seq&lt;/b&gt;:&amp;nbsp;&lt;/span&gt;&lt;span style=&quot;background-color: initial;&quot;&gt;http://ontologydesignpatterns.org/cp/owl/sequence.owl#&lt;/span&gt;&lt;/div&gt;&lt;div style=&quot;text-align: left;&quot;&gt;&lt;span style=&quot;background-color: initial;&quot;&gt;&lt;b&gt;xsd:&lt;/b&gt;&lt;/span&gt;&lt;span style=&quot;background-color: initial;&quot;&gt;http://www.w3.org/2001/XMLSchema#&lt;/span&gt;&lt;/div&gt;&lt;div style=&quot;text-align: left;&quot;&gt;&lt;b style=&quot;background-color: initial;&quot;&gt;&lt;br&gt;&lt;/b&gt;&lt;/div&gt;" style="text;html=1;align=center;verticalAlign=middle;resizable=0;points=[];autosize=1;strokeColor=none;fillColor=none;" parent="9CHXlj7oDI2Sfz7KYW_z-28" vertex="1">
          <mxGeometry x="-2.5" y="20" width="710" height="270" as="geometry" />
        </mxCell>
        <mxCell id="oJPYlwBUDY8PVrJOYScc-26" style="edgeStyle=orthogonalEdgeStyle;rounded=0;orthogonalLoop=1;jettySize=auto;html=1;exitX=0;exitY=0.5;exitDx=0;exitDy=0;" parent="1" source="9CHXlj7oDI2Sfz7KYW_z-37" target="T1l4sbLMmzmzh4Btzjgd-14" edge="1">
          <mxGeometry relative="1" as="geometry" />
        </mxCell>
        <mxCell id="oJPYlwBUDY8PVrJOYScc-27" value="rdf:&lt;b style=&quot;border-color: var(--border-color); font-size: 12px; background-color: rgb(251, 251, 251);&quot;&gt;type&lt;/b&gt;" style="edgeLabel;html=1;align=center;verticalAlign=middle;resizable=0;points=[];" parent="oJPYlwBUDY8PVrJOYScc-26" vertex="1" connectable="0">
          <mxGeometry x="-0.122" y="-2" relative="1" as="geometry">
            <mxPoint as="offset" />
          </mxGeometry>
        </mxCell>
        <mxCell id="9CHXlj7oDI2Sfz7KYW_z-37" value="cn5:Outcome" style="graphMlID=n4;shape=rect;rounded=1;arcsize=30;fillColor=#ffff00;strokeColor=#000000;strokeWidth=1.0;fontStyle=1" parent="1" vertex="1">
          <mxGeometry x="390" y="798" width="101.97" height="44" as="geometry" />
        </mxCell>
        <mxCell id="9CHXlj7oDI2Sfz7KYW_z-42" value="fs:Activity&#xa;(Lottery Draw)" style="graphMlID=n4;shape=rect;rounded=1;arcsize=30;fillColor=#ffff00;strokeColor=#000000;strokeWidth=1.0;fontStyle=1" parent="1" vertex="1">
          <mxGeometry x="683.94" y="640" width="130" height="44" as="geometry" />
        </mxCell>
        <mxCell id="9CHXlj7oDI2Sfz7KYW_z-45" value="" style="endArrow=classic;html=1;textDirection=ltr;rounded=0;exitX=0.348;exitY=0.955;exitDx=0;exitDy=0;exitPerimeter=0;" parent="1" source="9CHXlj7oDI2Sfz7KYW_z-37" target="9CHXlj7oDI2Sfz7KYW_z-10" edge="1">
          <mxGeometry width="50" height="50" relative="1" as="geometry">
            <mxPoint x="646.8900000000001" y="850" as="sourcePoint" />
            <mxPoint x="478.94" y="960" as="targetPoint" />
          </mxGeometry>
        </mxCell>
        <mxCell id="9CHXlj7oDI2Sfz7KYW_z-46" value="aff:&lt;b&gt;influencedBy&lt;/b&gt;" style="text;html=1;align=center;verticalAlign=middle;resizable=0;points=[];labelBackgroundColor=#ffffff;rotation=0;" parent="9CHXlj7oDI2Sfz7KYW_z-45" vertex="1" connectable="0">
          <mxGeometry x="-0.2211" relative="1" as="geometry">
            <mxPoint x="-11" y="3" as="offset" />
          </mxGeometry>
        </mxCell>
        <mxCell id="9CHXlj7oDI2Sfz7KYW_z-47" value="" style="rounded=0;orthogonalLoop=1;jettySize=auto;html=1;exitX=0;exitY=0.5;exitDx=0;exitDy=0;exitPerimeter=0;edgeStyle=orthogonalEdgeStyle;strokeColor=none;" parent="1" source="9CHXlj7oDI2Sfz7KYW_z-60" edge="1">
          <mxGeometry relative="1" as="geometry">
            <mxPoint x="1253.9" y="938" as="targetPoint" />
            <mxPoint x="1410.94" y="979" as="sourcePoint" />
          </mxGeometry>
        </mxCell>
        <mxCell id="T1l4sbLMmzmzh4Btzjgd-1" style="edgeStyle=orthogonalEdgeStyle;rounded=0;orthogonalLoop=1;jettySize=auto;html=1;exitX=1;exitY=0.5;exitDx=0;exitDy=0;exitPerimeter=0;entryX=0;entryY=0.5;entryDx=0;entryDy=0;" parent="1" source="9CHXlj7oDI2Sfz7KYW_z-49" target="9CHXlj7oDI2Sfz7KYW_z-60" edge="1">
          <mxGeometry relative="1" as="geometry" />
        </mxCell>
        <mxCell id="9CHXlj7oDI2Sfz7KYW_z-49" value="" style="line;strokeWidth=1;html=1;" parent="1" vertex="1">
          <mxGeometry x="1085.94" y="978" width="145.51" height="20" as="geometry" />
        </mxCell>
        <mxCell id="9CHXlj7oDI2Sfz7KYW_z-50" value="hfo:&lt;b&gt;hasOutcome&lt;/b&gt;" style="text;html=1;align=center;verticalAlign=middle;resizable=0;points=[];autosize=1;strokeColor=none;fillColor=none;" parent="1" vertex="1">
          <mxGeometry x="1098.94" y="968" width="120" height="30" as="geometry" />
        </mxCell>
        <mxCell id="9CHXlj7oDI2Sfz7KYW_z-51" value="" style="endArrow=classic;html=1;textDirection=ltr;rounded=0;entryX=0.139;entryY=-0.009;entryDx=0;entryDy=0;entryPerimeter=0;exitX=0.842;exitY=1.027;exitDx=0;exitDy=0;exitPerimeter=0;" parent="1" source="9CHXlj7oDI2Sfz7KYW_z-42" target="9CHXlj7oDI2Sfz7KYW_z-8" edge="1">
          <mxGeometry width="50" height="50" relative="1" as="geometry">
            <mxPoint x="788.94" y="700" as="sourcePoint" />
            <mxPoint x="936.8900000000001" y="700" as="targetPoint" />
          </mxGeometry>
        </mxCell>
        <mxCell id="9CHXlj7oDI2Sfz7KYW_z-52" value="ap:&lt;b&gt;hasParticipant&lt;/b&gt;" style="edgeLabel;html=1;align=center;verticalAlign=middle;resizable=0;points=[];" parent="9CHXlj7oDI2Sfz7KYW_z-51" vertex="1" connectable="0">
          <mxGeometry x="-0.1066" y="5" relative="1" as="geometry">
            <mxPoint as="offset" />
          </mxGeometry>
        </mxCell>
        <mxCell id="9CHXlj7oDI2Sfz7KYW_z-61" value="" style="rounded=0;orthogonalLoop=1;jettySize=auto;html=1;exitX=0;exitY=0.5;exitDx=0;exitDy=0;exitPerimeter=0;edgeStyle=orthogonalEdgeStyle;strokeColor=none;" parent="1" source="oJPYlwBUDY8PVrJOYScc-6" edge="1">
          <mxGeometry relative="1" as="geometry">
            <mxPoint x="1370" y="988" as="targetPoint" />
            <mxPoint x="1490" y="980" as="sourcePoint" />
          </mxGeometry>
        </mxCell>
        <mxCell id="oJPYlwBUDY8PVrJOYScc-7" style="edgeStyle=orthogonalEdgeStyle;rounded=0;orthogonalLoop=1;jettySize=auto;html=1;exitX=1;exitY=0.5;exitDx=0;exitDy=0;entryX=0;entryY=0.5;entryDx=0;entryDy=0;" parent="1" source="9CHXlj7oDI2Sfz7KYW_z-60" target="oJPYlwBUDY8PVrJOYScc-6" edge="1">
          <mxGeometry relative="1" as="geometry" />
        </mxCell>
        <mxCell id="oJPYlwBUDY8PVrJOYScc-8" value="par:&lt;b&gt; hasParameter&lt;/b&gt;" style="edgeLabel;html=1;align=center;verticalAlign=middle;resizable=0;points=[];" parent="oJPYlwBUDY8PVrJOYScc-7" vertex="1" connectable="0">
          <mxGeometry x="-0.1548" y="-3" relative="1" as="geometry">
            <mxPoint as="offset" />
          </mxGeometry>
        </mxCell>
        <mxCell id="9CHXlj7oDI2Sfz7KYW_z-60" value="cn5:Outcome" style="graphMlID=n4;shape=rect;rounded=1;arcsize=30;fillColor=#ffff00;strokeColor=#000000;strokeWidth=1.0;fontStyle=1" parent="1" vertex="1">
          <mxGeometry x="1223.48" y="966" width="90.91" height="44" as="geometry" />
        </mxCell>
        <mxCell id="yFhHQV57cIzd3f87OAGP-4" style="edgeStyle=orthogonalEdgeStyle;rounded=0;orthogonalLoop=1;jettySize=auto;html=1;exitX=0.5;exitY=0;exitDx=0;exitDy=0;entryX=0.75;entryY=1;entryDx=0;entryDy=0;" parent="1" source="9CHXlj7oDI2Sfz7KYW_z-63" target="9CHXlj7oDI2Sfz7KYW_z-3" edge="1">
          <mxGeometry relative="1" as="geometry" />
        </mxCell>
        <mxCell id="yFhHQV57cIzd3f87OAGP-5" value="Gfo:&lt;b style=&quot;border-color: var(--border-color);&quot;&gt;isIndipendentFrom&lt;/b&gt;" style="edgeLabel;html=1;align=center;verticalAlign=middle;resizable=0;points=[];" parent="yFhHQV57cIzd3f87OAGP-4" vertex="1" connectable="0">
          <mxGeometry x="-0.0195" relative="1" as="geometry">
            <mxPoint as="offset" />
          </mxGeometry>
        </mxCell>
        <mxCell id="9CHXlj7oDI2Sfz7KYW_z-63" value="fs:Event&#xa;(Number Draw)" style="graphMlID=n4;shape=rect;rounded=1;arcsize=30;fillColor=#ffff00;strokeColor=#000000;strokeWidth=1.0;fontStyle=1" parent="1" vertex="1">
          <mxGeometry x="1000.94" y="968" width="90" height="44" as="geometry" />
        </mxCell>
        <mxCell id="RzpL3l_7pE4UGMKXfCOK-23" value="xsd:string" style="graphMlID=n6;shape=parallelogram;fillColor=#ccffcc;strokeColor=#000000;strokeWidth=1.0;fontStyle=1" parent="1" vertex="1">
          <mxGeometry x="1183.94" y="1090" width="170" height="43" as="geometry" />
        </mxCell>
        <mxCell id="yFhHQV57cIzd3f87OAGP-2" style="edgeStyle=orthogonalEdgeStyle;rounded=0;orthogonalLoop=1;jettySize=auto;html=1;exitX=0;exitY=0.5;exitDx=0;exitDy=0;" parent="1" source="J0pF6A9lKTDRSyntQVaE-1" edge="1">
          <mxGeometry relative="1" as="geometry">
            <mxPoint x="1228.94" y="826" as="sourcePoint" />
            <mxPoint x="1111.968221028646" y="826" as="targetPoint" />
            <Array as="points">
              <mxPoint x="1245" y="826" />
            </Array>
          </mxGeometry>
        </mxCell>
        <mxCell id="yFhHQV57cIzd3f87OAGP-3" value="pof:&lt;b&gt;isPartOf&lt;/b&gt;" style="edgeLabel;html=1;align=center;verticalAlign=middle;resizable=0;points=[];" parent="yFhHQV57cIzd3f87OAGP-2" vertex="1" connectable="0">
          <mxGeometry x="0.1602" y="-2" relative="1" as="geometry">
            <mxPoint as="offset" />
          </mxGeometry>
        </mxCell>
        <mxCell id="J0pF6A9lKTDRSyntQVaE-1" value="fs:Opinion&#xa;(Judgement)" style="graphMlID=n4;shape=rect;rounded=1;arcsize=30;fillColor=#ffff00;strokeColor=#000000;strokeWidth=1.0;fontStyle=1" parent="1" vertex="1">
          <mxGeometry x="1324.47" y="804" width="80" height="44" as="geometry" />
        </mxCell>
        <mxCell id="joAxUdwlwtSYphTkRd9--10" value="" style="endArrow=classic;html=1;textDirection=ltr;rounded=0;" parent="1" edge="1">
          <mxGeometry width="50" height="50" relative="1" as="geometry">
            <mxPoint x="690" y="820" as="sourcePoint" />
            <mxPoint x="491.97" y="819.5" as="targetPoint" />
          </mxGeometry>
        </mxCell>
        <mxCell id="joAxUdwlwtSYphTkRd9--11" value="ap:&lt;b&gt;produces&lt;/b&gt;" style="text;html=1;align=center;verticalAlign=middle;resizable=0;points=[];labelBackgroundColor=#ffffff;rotation=0;" parent="joAxUdwlwtSYphTkRd9--10" vertex="1" connectable="0">
          <mxGeometry x="-0.2211" relative="1" as="geometry">
            <mxPoint x="-33" as="offset" />
          </mxGeometry>
        </mxCell>
        <mxCell id="9NzTIGKb-yHZweiVL87Q-2" value="" style="strokeWidth=1;html=1;shape=mxgraph.flowchart.annotation_2;align=left;labelPosition=right;pointerEvents=1;" parent="1" vertex="1">
          <mxGeometry x="1274.47" y="615" width="50" height="100" as="geometry" />
        </mxCell>
        <mxCell id="9NzTIGKb-yHZweiVL87Q-3" value="dbo:Randomness" style="graphMlID=n4;shape=rect;rounded=1;arcsize=30;fillColor=#ffff00;strokeColor=#000000;strokeWidth=1.0;fontStyle=1" parent="1" vertex="1">
          <mxGeometry x="1324.47" y="596" width="104.93" height="44" as="geometry" />
        </mxCell>
        <mxCell id="9NzTIGKb-yHZweiVL87Q-4" value="" style="line;strokeWidth=1;html=1;" parent="1" vertex="1">
          <mxGeometry x="1099" y="635" width="191" height="60" as="geometry" />
        </mxCell>
        <mxCell id="9NzTIGKb-yHZweiVL87Q-6" value="dul:h&lt;b style=&quot;border-color: var(--border-color);&quot;&gt;asQuality&lt;/b&gt;" style="edgeLabel;html=1;align=center;verticalAlign=middle;resizable=0;points=[];" parent="1" vertex="1" connectable="0">
          <mxGeometry x="1170" y="655" as="geometry">
            <mxPoint x="22" y="3" as="offset" />
          </mxGeometry>
        </mxCell>
        <mxCell id="9NzTIGKb-yHZweiVL87Q-7" value="fs:Possibilities&#xa;(Chance-Based)" style="graphMlID=n4;shape=rect;rounded=1;arcsize=30;fillColor=#ffff00;strokeColor=#000000;strokeWidth=1.0;fontStyle=1" parent="1" vertex="1">
          <mxGeometry x="1320" y="695" width="110" height="44" as="geometry" />
        </mxCell>
        <mxCell id="9NzTIGKb-yHZweiVL87Q-10" value="&#xa;&quot;true&quot;^^xsd:boolean&#xa;" style="graphMlID=n6;shape=parallelogram;fillColor=#ccffcc;strokeColor=#000000;strokeWidth=1.0;fontStyle=1" parent="1" vertex="1">
          <mxGeometry x="340" y="710" width="180" height="43" as="geometry" />
        </mxCell>
        <mxCell id="9NzTIGKb-yHZweiVL87Q-13" value="" style="endArrow=classic;html=1;textDirection=ltr;rounded=0;entryX=0.898;entryY=0.735;entryDx=0;entryDy=0;exitX=0.5;exitY=0;exitDx=0;exitDy=0;entryPerimeter=0;" parent="1" source="9CHXlj7oDI2Sfz7KYW_z-3" target="9NzTIGKb-yHZweiVL87Q-10" edge="1">
          <mxGeometry width="50" height="50" relative="1" as="geometry">
            <mxPoint x="610" y="800" as="sourcePoint" />
            <mxPoint x="737.95" y="770" as="targetPoint" />
          </mxGeometry>
        </mxCell>
        <mxCell id="9NzTIGKb-yHZweiVL87Q-14" value="res:&lt;b&gt;isTheNextEvent&lt;/b&gt;" style="text;html=1;align=center;verticalAlign=middle;resizable=0;points=[];labelBackgroundColor=#ffffff;rotation=0;" parent="9NzTIGKb-yHZweiVL87Q-13" vertex="1" connectable="0">
          <mxGeometry x="-0.2211" relative="1" as="geometry">
            <mxPoint x="-58" y="-21" as="offset" />
          </mxGeometry>
        </mxCell>
        <mxCell id="OWTpK2EfcZK1wVOOlTRi-3" style="edgeStyle=orthogonalEdgeStyle;rounded=0;orthogonalLoop=1;jettySize=auto;html=1;exitX=0.5;exitY=1;exitDx=0;exitDy=0;" parent="1" edge="1">
          <mxGeometry relative="1" as="geometry">
            <mxPoint x="1045.94" y="1011" as="sourcePoint" />
            <mxPoint x="1045" y="1150" as="targetPoint" />
          </mxGeometry>
        </mxCell>
        <mxCell id="OWTpK2EfcZK1wVOOlTRi-4" value="res:&lt;b&gt;isPastEvent&lt;/b&gt;" style="edgeLabel;html=1;align=center;verticalAlign=middle;resizable=0;points=[];" parent="OWTpK2EfcZK1wVOOlTRi-3" vertex="1" connectable="0">
          <mxGeometry x="-0.2416" y="1" relative="1" as="geometry">
            <mxPoint x="2" y="6" as="offset" />
          </mxGeometry>
        </mxCell>
        <mxCell id="T1l4sbLMmzmzh4Btzjgd-8" value="" style="line;strokeWidth=1;html=1;direction=south;" parent="1" vertex="1">
          <mxGeometry x="1263.93" y="1009" width="10" height="81" as="geometry" />
        </mxCell>
        <mxCell id="T1l4sbLMmzmzh4Btzjgd-10" value="rdf:&lt;b style=&quot;border-color: var(--border-color);&quot;&gt;type&lt;/b&gt;" style="text;html=1;strokeColor=none;fillColor=none;align=center;verticalAlign=middle;whiteSpace=wrap;rounded=0;rotation=90;" parent="1" vertex="1">
          <mxGeometry x="1248.94" y="1050" width="60" height="30" as="geometry" />
        </mxCell>
        <mxCell id="T1l4sbLMmzmzh4Btzjgd-12" style="edgeStyle=orthogonalEdgeStyle;rounded=0;orthogonalLoop=1;jettySize=auto;html=1;exitX=0.75;exitY=0;exitDx=0;exitDy=0;entryX=0.62;entryY=0.959;entryDx=0;entryDy=0;entryPerimeter=0;" parent="1" source="9CHXlj7oDI2Sfz7KYW_z-3" target="9CHXlj7oDI2Sfz7KYW_z-42" edge="1">
          <mxGeometry relative="1" as="geometry" />
        </mxCell>
        <mxCell id="T1l4sbLMmzmzh4Btzjgd-13" value="pof:&lt;b style=&quot;border-color: var(--border-color);&quot;&gt;isPartOf&lt;/b&gt;" style="edgeLabel;html=1;align=center;verticalAlign=middle;resizable=0;points=[];" parent="T1l4sbLMmzmzh4Btzjgd-12" vertex="1" connectable="0">
          <mxGeometry x="0.1208" relative="1" as="geometry">
            <mxPoint as="offset" />
          </mxGeometry>
        </mxCell>
        <mxCell id="T1l4sbLMmzmzh4Btzjgd-14" value="xsd:string" style="graphMlID=n6;shape=parallelogram;fillColor=#ccffcc;strokeColor=#000000;strokeWidth=1.0;fontStyle=1" parent="1" vertex="1">
          <mxGeometry x="90" y="794.5" width="180" height="49.5" as="geometry" />
        </mxCell>
        <mxCell id="oJPYlwBUDY8PVrJOYScc-1" value="dbo:Equivalence&#xa;(SameOutcome)" style="graphMlID=n4;shape=rect;rounded=1;arcsize=30;fillColor=#ffff00;strokeColor=#000000;strokeWidth=1.0;fontStyle=1" parent="1" vertex="1">
          <mxGeometry x="669.97" y="1120" width="139.97" height="44" as="geometry" />
        </mxCell>
        <mxCell id="oJPYlwBUDY8PVrJOYScc-3" style="edgeStyle=orthogonalEdgeStyle;rounded=0;orthogonalLoop=1;jettySize=auto;html=1;exitX=0.5;exitY=1;exitDx=0;exitDy=0;" parent="1" source="9CHXlj7oDI2Sfz7KYW_z-17" target="oJPYlwBUDY8PVrJOYScc-1" edge="1">
          <mxGeometry relative="1" as="geometry" />
        </mxCell>
        <mxCell id="oJPYlwBUDY8PVrJOYScc-4" value="res:&lt;b&gt;hasUnifyingFactor&lt;/b&gt;" style="edgeLabel;html=1;align=center;verticalAlign=middle;resizable=0;points=[];" parent="oJPYlwBUDY8PVrJOYScc-3" vertex="1" connectable="0">
          <mxGeometry x="-0.2252" y="2" relative="1" as="geometry">
            <mxPoint as="offset" />
          </mxGeometry>
        </mxCell>
        <mxCell id="oJPYlwBUDY8PVrJOYScc-5" value="" style="rounded=0;orthogonalLoop=1;jettySize=auto;html=1;exitX=0;exitY=0.5;exitDx=0;exitDy=0;exitPerimeter=0;edgeStyle=orthogonalEdgeStyle;strokeColor=none;" parent="1" target="oJPYlwBUDY8PVrJOYScc-6" edge="1">
          <mxGeometry relative="1" as="geometry">
            <mxPoint x="1370" y="988" as="targetPoint" />
            <mxPoint x="1490" y="980" as="sourcePoint" />
          </mxGeometry>
        </mxCell>
        <mxCell id="oJPYlwBUDY8PVrJOYScc-12" style="edgeStyle=orthogonalEdgeStyle;rounded=0;orthogonalLoop=1;jettySize=auto;html=1;exitX=0.5;exitY=0;exitDx=0;exitDy=0;" parent="1" source="oJPYlwBUDY8PVrJOYScc-6" edge="1">
          <mxGeometry relative="1" as="geometry">
            <mxPoint x="1491" y="840" as="targetPoint" />
          </mxGeometry>
        </mxCell>
        <mxCell id="oJPYlwBUDY8PVrJOYScc-13" value="par:&lt;b style=&quot;border-color: var(--border-color);&quot;&gt;hasParameterDataValue&lt;/b&gt;" style="edgeLabel;html=1;align=center;verticalAlign=middle;resizable=0;points=[];" parent="oJPYlwBUDY8PVrJOYScc-12" vertex="1" connectable="0">
          <mxGeometry x="0.0613" y="-1" relative="1" as="geometry">
            <mxPoint x="18" as="offset" />
          </mxGeometry>
        </mxCell>
        <mxCell id="oJPYlwBUDY8PVrJOYScc-6" value="fs:Frequency" style="graphMlID=n4;shape=rect;rounded=1;arcsize=30;fillColor=#ffff00;strokeColor=#000000;strokeWidth=1.0;fontStyle=1" parent="1" vertex="1">
          <mxGeometry x="1449.995889485677" y="968" width="81.96822102864604" height="44" as="geometry" />
        </mxCell>
        <mxCell id="oJPYlwBUDY8PVrJOYScc-16" value="" style="strokeWidth=1;html=1;shape=mxgraph.flowchart.annotation_2;align=left;labelPosition=right;pointerEvents=1;direction=south;" parent="1" vertex="1">
          <mxGeometry x="1278.47" y="912" width="184" height="54" as="geometry" />
        </mxCell>
        <mxCell id="oJPYlwBUDY8PVrJOYScc-19" value="" style="line;strokeWidth=1;html=1;direction=south;" parent="1" vertex="1">
          <mxGeometry x="1365.47" y="848" width="10" height="65" as="geometry" />
        </mxCell>
        <mxCell id="oJPYlwBUDY8PVrJOYScc-22" value="aff:&lt;b&gt;influencedBy&lt;/b&gt;" style="text;whiteSpace=wrap;html=1;" parent="1" vertex="1">
          <mxGeometry x="1314.39" y="867" width="96.06" height="27" as="geometry" />
        </mxCell>
        <mxCell id="oJPYlwBUDY8PVrJOYScc-28" value="&#xa;&quot;true&quot;^^xsd:boolean&#xa;" style="graphMlID=n6;shape=parallelogram;fillColor=#ccffcc;strokeColor=#000000;strokeWidth=1.0;fontStyle=1" parent="1" vertex="1">
          <mxGeometry x="955.94" y="1150" width="180" height="43" as="geometry" />
        </mxCell>
        <mxCell id="oJPYlwBUDY8PVrJOYScc-29" value="&quot;low&quot;^^xsd:string" style="graphMlID=n6;shape=parallelogram;fillColor=#ccffcc;strokeColor=#000000;strokeWidth=1.0;fontStyle=1" parent="1" vertex="1">
          <mxGeometry x="102.94" y="1133" width="186.09" height="43" as="geometry" />
        </mxCell>
        <mxCell id="oJPYlwBUDY8PVrJOYScc-37" style="edgeStyle=orthogonalEdgeStyle;rounded=0;orthogonalLoop=1;jettySize=auto;html=1;exitX=0.5;exitY=1;exitDx=0;exitDy=0;entryX=0.5;entryY=0;entryDx=0;entryDy=0;" parent="1" source="oJPYlwBUDY8PVrJOYScc-34" target="oJPYlwBUDY8PVrJOYScc-29" edge="1">
          <mxGeometry relative="1" as="geometry" />
        </mxCell>
        <mxCell id="oJPYlwBUDY8PVrJOYScc-34" value="dbo:Parameter" style="graphMlID=n4;shape=rect;rounded=1;arcsize=30;fillColor=#ffff00;strokeColor=#000000;strokeWidth=1.0;fontStyle=1" parent="1" vertex="1">
          <mxGeometry x="150" y="970" width="91.97" height="44" as="geometry" />
        </mxCell>
      </root>
    </mxGraphModel>
  </diagram>
</mxfile>
